<!DOCTYPE svg PUBLIC "-//W3C//DTD SVG 1.1//EN" "http://www.w3.org/Graphics/SVG/1.1/DTD/svg11.dtd">
<!-- Uploaded to: SVG Repo, www.svgrepo.com, Transformed by: SVG Repo Mixer Tools -->
<svg fill="#8b0003" height="64px" width="64px" version="1.1" id="Layer_1" xmlns="http://www.w3.org/2000/svg" xmlns:xlink="http://www.w3.org/1999/xlink" viewBox="0 0 512.001 512.001" xml:space="preserve">
<g id="SVGRepo_bgCarrier" stroke-width="0"/>
<g id="SVGRepo_tracerCarrier" stroke-linecap="round" stroke-linejoin="round"/>
<g id="SVGRepo_iconCarrier"> <g> <g> <path d="M510.223,142.801L443.445,9.245c-2.831-5.657-8.608-9.228-14.934-9.228H83.491c-6.326,0-12.102,3.57-14.934,9.228 L1.779,142.801c-5.544,11.089,2.544,24.161,14.934,24.161h16.695v328.326c0,9.222,7.472,16.695,16.695,16.695 c4.088,0,400.88,0,411.798,0c9.216,0,16.583-7.472,16.583-16.695c0.152-197.536,0.169-201.347,0-328.326h16.806 C507.723,166.963,515.751,153.855,510.223,142.801z M339.475,478.594H172.418v-33.389h167.057V478.594z M445.207,233.741h-55.648 c-9.222,0-16.695,7.472-16.695,16.695v100.167c0,9.222,7.472,16.695,16.695,16.695h55.648v111.297h-72.454V428.51 c0-9.222-7.361-16.695-16.583-16.695h-16.806v-161.38c0-9.222-7.361-16.695-16.583-16.695H189.224 c-9.222,0-16.695,7.472-16.695,16.695v161.38h-16.695c-9.222,0-16.695,7.472-16.695,16.695v50.084H66.686V367.297h55.76 c9.222,0,16.583-7.472,16.583-16.695V250.435c0-9.222-7.361-16.695-16.583-16.695h-55.76v-66.778h378.521V233.741z"/> </g> </g> </g>
</svg>